<?xml version="1.0" standalone="no"?>
<!DOCTYPE svg PUBLIC "-//W3C//DTD SVG 1.1//EN" "http://www.w3.org/Graphics/SVG/1.1/DTD/svg11.dtd" >
<svg xmlns="http://www.w3.org/2000/svg">
<metadata>Generated by IcoMoon</metadata>
<defs>
<font id="icomoon" horiz-adv-x="1024">
<font-face units-per-em="1024" ascent="960" descent="-64" />
<missing-glyph horiz-adv-x="1024" />
<glyph unicode="&#x20;" horiz-adv-x="512" d="" />
<glyph unicode="&#xe600;" glyph-name="arrow_down" d="M106.784 764.992l406.432-508 406.4 508h-812.832z" />
<glyph unicode="&#xe601;" glyph-name="calendar" d="M394.912 368.096h-117.824v117.792h117.824v-117.792zM572.896 485.92h-117.792v-117.824h117.792v117.792zM750.912 485.92h-117.824v-117.824h117.824v117.792zM394.912 313.92h-117.824v-117.824h117.824v117.824zM572.896 313.92h-117.792v-117.824h117.792v117.824zM750.912 313.92h-117.792v-117.824h117.792v117.824zM794.784 723.744c0-20.064-16.256-36.352-36.352-36.352s-36.352 16.256-36.352 36.352v91.456c0 20.064 16.288 36.352 36.352 36.352s36.352-16.256 36.352-36.352v-91.456zM303.776 815.36c0 20.064-16.256 36.352-36.352 36.352-20.064 0-36.352-16.288-36.352-36.352v-91.456c0-20.064 16.256-36.352 36.352-36.352 20.064 0 36.352 16.256 36.352 36.352v91.456zM838.688 762.304v-37.216c0-44.256-36-80.256-80.256-80.256s-80.256 36-80.256 80.256v37.216h-330.464v-37.056c0-44.256-36-80.256-80.256-80.256s-80.256 36-80.256 80.256v37.056h-87.168v-718.016h824v718.016h-85.312zM844 124.288h-664v444.928h664v-444.928z" />
<glyph unicode="&#xe602;" glyph-name="clock" d="M734.016 368.992h-279.008v307.008h90.016v-216.992h188.992v-90.016zM512 769.984c-177.984 0-322.016-144.032-322.016-322.016s144.032-322.016 322.016-322.016c177.984 0 322.016 144.032 322.016 322.016s-144.032 322.016-322.016 322.016zM512 860c227.552 0 412-184.448 412-412s-184.448-412-412-412-412 184.448-412 412 184.448 412 412 412z" />
<glyph unicode="&#xe603;" glyph-name="emptystar" d="M511.264 818.272l116.256-238.88 261.888-38.688-189.408-187.104 4.192-24.64 40.448-238.848-233.312 124.416-232.864-124.16 40.224 238.624 4.128 24.576-189.376 187.328 261.536 38.4 116.288 238.976zM511.264 927.968l-148.352-304.864-331.616-48.672 240.064-237.44-56.448-334.912 296.416 158.016 296.96-158.304-56.768 335.2 240.064 237.152-332 49.024-148.32 304.8z" />
<glyph unicode="&#xe604;" glyph-name="facebook" d="M408.128 590.624h-86.304v-140.864h86.304v-413.76h165.92v415.52h115.776l12.32 139.104h-128.096c0 0 0 51.936 0 79.232 0 32.8 6.592 45.792 38.304 45.792 25.536 0 89.792 0 89.792 0v144.384c0 0-94.656 0-114.88 0-123.456 0-179.136-54.368-179.136-158.464 0-90.656 0-110.912 0-110.912z" />
<glyph unicode="&#xe605;" glyph-name="filledstar" d="M31.296 574.432l240.064-237.44-56.448-334.912 296.416 158.016 296.96-158.304-56.768 335.2 240.064 237.152-332 49.024-148.32 304.8-148.352-304.864-331.616-48.672z" />
<glyph unicode="&#xe606;" glyph-name="halfstar" d="M511.264 818.272l116.256-238.88 261.888-38.688-189.408-187.104 4.192-24.64 40.448-238.848-233.312 124.416-232.864-124.16 40.224 238.624 4.128 24.576-189.376 187.328 261.536 38.4 116.288 238.976zM511.264 927.968l-148.352-304.864-331.616-48.672 240.064-237.44-56.448-334.912 296.416 158.016 296.96-158.304-56.768 335.2 240.064 237.152-332 49.024-148.32 304.8zM31.296 574.432l240.064-237.44-56.448-334.912 296.416 158.016-0.064 767.872-148.352-304.864-331.616-48.672z" />
<glyph unicode="&#xe607;" glyph-name="heart" d="M901.408 711.552c-80.928 165.6-326.816 152.8-389.408 8.512-62.592 144.288-308.48 157.088-389.408-8.512-95.424-195.232 126.016-381.184 389.408-647.584 263.392 266.4 484.832 452.352 389.408 647.584z" />
<glyph unicode="&#xe608;" glyph-name="questionmark" d="M512 860c-227.542 0-412-184.458-412-412s184.458-412 412-412 412 184.458 412 412-184.458 412-412 412zM516.5 174.2c-32.324 0-58.54 26.214-58.54 58.55 0 32.32 26.214 58.526 58.54 58.526 32.332 0 58.54-26.206 58.54-58.526 0-32.336-26.208-58.55-58.54-58.55zM562.524 347.23v-10.532c0 0-87.766 0-96.496 0v10.532c0 29.796 4.348 68.024 38.942 101.256 34.598 33.238 77.832 60.692 77.832 102.212 0 45.9-31.856 70.18-72.020 70.18-66.926 0-71.3-69.41-72.95-84.694h-93.856c2.5 72.378 33.090 173.616 167.368 173.616 116.364 0 168.68-77.934 168.68-151.016 0-116.324-117.5-136.53-117.5-211.554z" />
<glyph unicode="&#xe609;" glyph-name="linkedin" d="M301.312 758.624c0-56-45.024-101.376-100.544-101.376s-100.544 45.376-100.544 101.376c0 55.968 45.024 101.376 100.544 101.376s100.544-45.376 100.544-101.376zM286.592 585.344h-170.048v-549.344h170.048v549.344zM558.4 585.344h-163.072v-549.344h163.072c0 0 0 203.744 0 288.352 0 77.248 35.552 123.232 103.616 123.232 62.528 0 92.576-44.128 92.576-123.232s0-288.352 0-288.352h169.216c0 0 0 200.672 0 347.84s-83.392 218.272-199.872 218.272-165.536-90.752-165.536-90.752v73.984z" />
<glyph unicode="&#xe60a;" glyph-name="locationpin" d="M512 860c-144.16 0-260.992-116.864-260.992-260.992s114.24-229.664 260.992-480.992c146.784 251.328 260.992 336.864 260.992 480.992s-116.864 260.992-260.992 260.992zM512 511.744c-51.712 0-93.6 41.92-93.6 93.6s41.92 93.6 93.6 93.6c51.712 0 93.6-41.92 93.6-93.6s-41.92-93.6-93.6-93.6z" />
<glyph unicode="&#xe60b;" glyph-name="magnifyingglass" d="M920.96 143.104l-218.144 218.144c31.904 50.272 50.4 109.856 50.4 173.664 0 179.232-145.824 325.088-325.088 325.088-179.232 0-325.088-145.824-325.088-325.088s145.824-325.088 325.088-325.088c60.64 0 117.472 16.704 166.112 45.76l219.616-219.616 107.104 107.104zM224.224 534.912c0 112.416 91.456 203.904 203.904 203.904s203.904-91.456 203.904-203.904-91.456-203.904-203.904-203.904c-112.416 0-203.904 91.456-203.904 203.904z" />
<glyph unicode="&#xe60c;" glyph-name="mail" d="M512.032 413.12l-410.336 340.064h821.792l-411.456-340.064zM511.968 302.208l-411.968 341.312v-500.704h824v499.872l-412.032-340.48z" />
<glyph unicode="&#xe60d;" glyph-name="menubars" d="M924 632.992h-824v130.016h824v-130.016zM924 512.992h-824v-130.016h824v130.016zM924 263.008h-824v-130.016h824v130.016z" />
<glyph unicode="&#xe60e;" glyph-name="phone" d="M533.408 637.888l-68.384-34.336-111.52 222.112 68.384 34.336 111.52-222.112zM686.112 333.792l-68.384-34.336 111.52-222.112 68.384 34.336-111.52 222.112zM425.376 579.616l-113.248 225.504c-45.888-24.512-175.52-81.408 15.136-461.088 191.52-381.408 310.144-310.816 360.704-287.328l-113.152 225.312c-72.672-35.968-220.704 258.944-149.408 297.568z" />
<glyph unicode="&#xe60f;" glyph-name="profile" d="M814.88 239.040c-118.080 27.232-227.968 51.072-174.752 151.424 162.016 305.472 42.944 468.8-128.16 468.8-174.464 0-290.592-169.632-128.16-468.8 54.816-100.96-59.232-124.8-174.752-151.424-118.016-27.232-108.96-89.44-108.96-202.336h823.68c0 112.896 9.088 175.136-108.928 202.336z" />
<glyph unicode="&#xe610;" glyph-name="twitter" d="M924 703.552c-30.304-13.44-62.912-22.528-97.088-26.624 34.912 20.928 61.696 54.048 74.336 93.536-32.672-19.36-68.832-33.44-107.36-41.024-30.848 32.864-74.784 53.376-123.392 53.376-109.12 0-189.344-101.824-164.672-207.584-140.512 7.040-265.056 74.368-348.448 176.64-44.288-75.968-22.976-175.392 52.32-225.696-27.712 0.864-53.792 8.48-76.576 21.152-1.824-78.336 54.304-151.552 135.584-167.904-23.808-6.464-49.856-7.968-76.352-2.88 21.504-67.168 83.936-116.032 157.92-117.408-71.072-55.712-160.576-80.576-250.272-70.016 74.816-47.968 163.68-75.968 259.136-75.968 313.856 0 491.2 265.088 480.512 502.88 33.024 23.84 61.696 53.6 84.352 87.52z" />
<glyph unicode="&#xe611;" glyph-name="warning" d="M512 860c-227.552 0-412-184.448-412-412s184.448-412 412-412c227.552 0 412 184.448 412 412s-184.448 412-412 412zM512.928 162.976c-32.416 0-58.688 26.272-58.688 58.688s26.272 58.688 58.688 58.688c32.416 0 58.688-26.272 58.688-58.688s-26.272-58.688-58.688-58.688zM590.464 643.52c-4.96-39.552-41.408-232.16-53.44-295.456-2.24-11.712-12.448-20.192-24.384-20.192h-0.48c-12.352 0-22.88 8.768-25.184 20.864-12.192 64.256-48.576 256.992-53.472 295.936-5.888 46.88 30.72 88.352 77.952 88.352 47.872 0 84.96-42.016 78.976-89.504z" />
<glyph unicode="&#xe612;" glyph-name="x" d="M876.8 210.816l-237.28 237.248 237.248 237.248-127.552 127.488-237.184-237.248-237.248 237.216-127.552-127.456 237.28-237.248-237.248-237.28 127.456-127.552 237.312 237.312 237.312-237.28z" />
<glyph unicode="&#xe613;" glyph-name="eye_invisible" d="M512.988 207.714c-166.554 0-317.936 114.574-412.988 253.9 95.912 134.444 247.272 226.668 412.988 226.668 166.064 0 317.93-90.62 411.012-225.814-88.258-147.090-239.344-254.754-411.012-254.754zM187.206 460.454c79.566-98.276 197.056-182.726 325.784-182.726 175.35 0 288.852 131.4 326.026 181.962-79.080 93.040-195.436 158.584-326.026 158.584-169.63 0-285.236-111.648-325.784-157.82zM516.622 586.736c-76.624 0-138.738-62.114-138.738-138.736s62.114-138.736 138.738-138.736c76.622 0 138.736 62.116 138.736 138.736 0 76.622-62.116 138.736-138.736 138.736zM516.492 448.046c-19.584-19.582-51.332-19.582-70.916 0-19.584 19.584-19.584 51.334 0 70.916 19.584 19.584 51.332 19.584 70.916 0 19.584-19.582 19.584-51.332 0-70.916zM720.542 767.454l92.528-81.48-477.612-549.428-92.528 81.478z" />
<glyph unicode="&#xe614;" glyph-name="checkmark" d="M796.436 774.030l-396.978-396.98-171.95 171.998-127.508-127.532 299.466-299.546 524.534 524.578z" />
<glyph unicode="&#xe615;" glyph-name="eye" d="M512.988 207.716c-166.554 0-317.936 114.574-412.988 253.898 95.912 134.444 247.272 226.668 412.988 226.668 166.064 0 317.93-90.62 411.012-225.814-88.258-147.090-239.344-254.752-411.012-254.752zM187.206 460.454c79.566-98.276 197.056-182.726 325.784-182.726 175.35 0 288.852 131.4 326.026 181.962-79.080 93.040-195.436 158.584-326.026 158.584-169.63 0-285.236-111.648-325.784-157.82zM516.62 586.736c-76.624 0-138.736-62.114-138.736-138.736s62.114-138.736 138.736-138.736 138.738 62.114 138.738 138.736-62.116 138.736-138.738 138.736zM516.492 448.046c-19.584-19.582-51.332-19.582-70.916 0-19.584 19.584-19.584 51.334 0 70.916 19.584 19.584 51.332 19.584 70.916 0 19.584-19.582 19.584-51.332 0-70.916z" />
<glyph unicode="&#xe616;" glyph-name="caret-icon" d="M817.060 708.168l109.772-110.296-412-410.040-412 410.040 109.774 110.296 302.226-300.79z" />
<glyph unicode="&#xe617;" glyph-name="flame" d="M416.884 943.148c0 0 216.186-80.442 251.382-241.326 35.192-160.882 0-170.938 0-170.938s60.33 47.762 60.33 70.388c0 22.624 188.474-118.64 170.942-321.768-22.548-261.048-376.946-345.132-341.88-321.764 7.544 5.032 139.654 168.366 10.056 271.492-126.432 100.602-80.444 191.048-80.444 201.102 0 10.056-229.024-97.224-150.828-331.822 5.030-15.084 80.442-130.716 80.442-130.716s-241.326 37.702-301.656 211.156c-63.308 181.994 32.678 286.572 100.55 341.876 67.874 55.304 167.066 157.142 201.106 221.214 42.736 80.444 0 201.106 0 201.106z" />
<glyph unicode="&#xe618;" glyph-name="menu" d="M762.5 509.19h-503.554v81.81h503.554v-81.81zM762.5 433.674h-503.554v-81.81h503.554v81.81zM762.5 276.348h-503.554v-81.808h503.554v81.808zM844 672v-556h-664v556h664zM924 860h-824v-824h824v824z" />
<glyph unicode="&#xe619;" glyph-name="edit" d="M345.564 82.328v0l-244.73-45.168 49.374 240.53 195.356-195.362zM729.47 856.954l-87.658-87.658 195.364-195.36 87.658 87.658-195.364 195.36zM193.992 321.474l195.362-195.358 404.034 404.030-195.36 195.364-404.036-404.036z" />
<glyph unicode="&#xe61a;" glyph-name="arrow_side" d="M259.184 104.578l508.010 406.418-508.010 406.414v-812.832z" />
<glyph unicode="&#xe61b;" glyph-name="email2" d="M100.846 753.186v-610.372h822.306v610.372h-822.306zM825.856 673.186l-314.67-260.058-313.804 260.058h628.474zM843.152 222.814h-662.306v355.016l330.274-273.626 332.032 274.38v-355.77z" />
<glyph unicode="&#xe61c;" glyph-name="link" d="M312.452 560.642c15.082 15.080 31.804 27.514 49.588 37.318 99.112 54.636 226.234 25.576 289.94-71.036l-77.094-77.094c-22.118 50.454-77 79.13-131.626 66.912-20.564-4.6-40.108-14.854-56.078-30.826l-147.796-147.792c-44.866-44.866-44.864-117.872 0.004-162.738 44.866-44.866 117.87-44.866 162.736 0l45.56 45.558c41.42-16.434 85.876-23.016 129.724-19.726l-100.556-100.556c-86.21-86.21-225.982-86.21-312.192 0-86.21 86.208-86.212 225.982-0.002 312.192l147.792 147.788zM547.148 795.34l-100.556-100.556c43.856 3.286 88.304-3.296 129.726-19.73l45.558 45.56c44.868 44.868 117.872 44.868 162.74 0s44.868-117.872 0-162.74l-147.794-147.79c-45.002-45.002-118.122-44.622-162.736 0-10.404 10.402-19.388 23.356-24.968 36.080l-77.092-77.092c8.098-12.284 16.522-22.906 27.332-33.716 27.898-27.9 63.396-48.678 104.234-58.502 52.932-12.74 109.646-5.678 158.37 21.184 17.784 9.806 34.508 22.238 49.588 37.318l147.792 147.79c86.21 86.21 86.21 225.982 0.002 312.194-86.212 86.21-225.984 86.21-312.196 0z" />
<glyph unicode="&#xe61d;" glyph-name="timer" d="M699.316 723.492l41.972 61.084 65.836-45.45-41.782-60.804c-20.358 17.18-42.46 32.356-66.026 45.17zM451.444 861.76v-95.402c19.744 3.064 39.964 4.662 60.554 4.662 20.204 0 40.056-1.536 59.446-4.486v95.226h-120zM855.386 377.63c0-189.648-153.734-343.39-343.388-343.39-189.65 0-343.386 153.742-343.386 343.39 0 189.646 153.736 343.388 343.386 343.388 189.654 0.002 343.388-153.74 343.388-343.388zM765.386 377.63c0 140.062-113.352 253.388-253.388 253.388-140.062 0-253.386-113.356-253.386-253.388 0-140.062 113.354-253.39 253.386-253.39 140.064 0 253.388 113.352 253.388 253.39zM578.528 359.546c0-34.792-28.208-63-63-63-34.794 0-63 28.208-63 63 0 22.602 11.91 42.414 29.79 53.532l23.050 173.214c0.472 3.898 3.74 6.856 7.666 6.942 3.924 0.084 7.316-2.728 7.96-6.602l26.66-172.894c18.478-10.98 30.874-31.134 30.874-54.192z" />
<glyph unicode="&#xe61e;" glyph-name="group_profiles" d="M923.936 241.284h-159.874c-0.008 173.996-86.98 91.296-86.98 243.77 0 55.040 36.034 84.91 82.3 84.91 68.362 0 115.938-65.27 51.202-187.32-21.268-40.098 22.646-49.624 69.824-60.508 47.156-10.876 43.528-35.74 43.528-80.852zM143.592 322.134c47.178 10.882 91.092 20.41 69.824 60.508-64.736 122.050-17.16 187.32 51.202 187.32 46.268 0 82.3-29.872 82.3-84.91 0-152.472-86.972-69.774-86.98-243.77h-159.874c0 45.114-3.628 69.978 43.528 80.852zM664.23 342.982c-59.34 13.692-114.578 25.676-87.826 76.11 81.43 153.524 21.584 235.624-64.404 235.624-87.684 0-146.054-85.25-64.402-235.624 27.552-50.742-29.766-62.714-87.83-76.11-59.316-13.68-54.754-44.954-54.754-101.7h413.97c0 56.748 4.564 88.020-54.754 101.7z" />
</font>
</defs>
</svg>
