<?xml version="1.0" encoding="UTF-8" standalone="no"?>
<!-- Generator: Adobe Illustrator 16.0.0, SVG Export Plug-In . SVG Version: 6.00 Build 0)  -->

<svg
   xmlns:dc="http://purl.org/dc/elements/1.1/"
   xmlns:cc="http://creativecommons.org/ns#"
   xmlns:rdf="http://www.w3.org/1999/02/22-rdf-syntax-ns#"
   xmlns:svg="http://www.w3.org/2000/svg"
   xmlns="http://www.w3.org/2000/svg"
   xmlns:sodipodi="http://sodipodi.sourceforge.net/DTD/sodipodi-0.dtd"
   xmlns:inkscape="http://www.inkscape.org/namespaces/inkscape"
   version="1.1"
   x="0px"
   y="0px"
   width="310"
   height="60"
   viewBox="0 0 310 60"
   enable-background="new 0 0 360 360"
   xml:space="preserve"
   id="svg2"
   inkscape:version="0.91 r13725"
   sodipodi:docname="logo.svg"><metadata
     id="metadata14"><rdf:RDF><cc:Work
         rdf:about=""><dc:format>image/svg+xml</dc:format><dc:type
           rdf:resource="http://purl.org/dc/dcmitype/StillImage" /><dc:title></dc:title></cc:Work></rdf:RDF></metadata><defs
     id="defs12" /><sodipodi:namedview
     pagecolor="#ffffff"
     bordercolor="#666666"
     borderopacity="1"
     objecttolerance="10"
     gridtolerance="10"
     guidetolerance="10"
     inkscape:pageopacity="0"
     inkscape:pageshadow="2"
     inkscape:window-width="1440"
     inkscape:window-height="851"
     id="namedview10"
     showgrid="false"
     inkscape:zoom="0.65555556"
     inkscape:cx="232.62712"
     inkscape:cy="-64.067797"
     inkscape:window-x="0"
     inkscape:window-y="0"
     inkscape:window-maximized="1"
     inkscape:current-layer="svg2" /><g
     id="Gb__x5B_red__x2F__x2F__horiztonal_x5D__1_"
     transform="translate(-25.597891,-266.54088)"><g
       id="Goodybag__x5B_logo_x5D__copy_2"><g
         id="g6"><path
           d="m 63.564,289.204 -13.918,0 c -2.757,0 -3.085,4.314 0,4.314 l 11.817,0 0,8.694 c -2.889,3.857 -7.943,5.949 -12.802,5.884 -8.469,-0.196 -15.953,-7.91 -16.084,-17.128 0,-8.563 6.302,-14.904 13.524,-16.604 4.924,-1.242 11.029,0.261 14.706,4.51 2.035,2.354 5.383,-0.784 3.414,-3.072 -3.611,-4.184 -9.716,-6.145 -15.427,-6.145 -1.182,0 -2.429,0.064 -3.414,0.195 -10.044,1.896 -17.528,10.982 -17.528,20.92 -0.263,12.354 9.453,21.703 20.745,21.769 6.368,0.065 12.867,-2.746 16.741,-7.845 0.591,-0.589 0.722,-1.438 0.722,-2.157 l 0,-10.917 c -0.001,-1.437 -0.592,-2.418 -2.496,-2.418 z m 30.79,-10.46 c -1.707,-0.457 -3.283,-0.588 -4.858,-0.588 -1.641,0 -3.414,0.131 -4.989,0.588 -7.222,2.027 -11.489,8.106 -12.146,15.363 -0.197,4.902 1.051,9.086 4.005,12.551 3.217,3.857 7.878,5.884 13.13,5.884 5.187,0 9.913,-2.026 13.13,-5.884 2.889,-3.465 4.202,-7.648 3.939,-12.551 -0.591,-7.322 -5.055,-13.336 -12.211,-15.363 z m 4.595,25.038 c -2.298,2.614 -5.908,4.314 -9.454,4.314 -3.611,0 -7.09,-1.569 -9.388,-4.314 -1.97,-2.288 -2.889,-5.36 -2.889,-8.302 0,-5.885 3.217,-10.983 8.731,-12.422 0.985,-0.261 2.232,-0.457 3.479,-0.457 1.247,0 2.56,0.196 3.611,0.457 5.58,1.438 8.797,6.604 8.797,12.552 0.002,2.812 -1.048,5.95 -2.887,8.172 z m 34.053,-25.038 c -1.707,-0.457 -3.283,-0.588 -4.858,-0.588 -1.641,0 -3.414,0.131 -4.989,0.588 -7.222,2.027 -11.489,8.106 -12.145,15.363 -0.197,4.902 1.05,9.086 4.004,12.551 3.217,3.857 7.878,5.884 13.13,5.884 5.187,0 9.913,-2.026 13.13,-5.884 2.889,-3.465 4.202,-7.648 3.939,-12.551 -0.59,-7.322 -5.055,-13.336 -12.211,-15.363 z m 4.596,25.038 c -2.298,2.614 -5.908,4.314 -9.454,4.314 -3.611,0 -7.09,-1.569 -9.388,-4.314 -1.97,-2.288 -2.889,-5.36 -2.889,-8.302 0,-5.885 3.217,-10.983 8.731,-12.422 0.985,-0.261 2.232,-0.457 3.479,-0.457 1.247,0 2.56,0.196 3.611,0.457 5.58,1.438 8.797,6.604 8.797,12.552 10e-4,2.812 -1.049,5.95 -2.887,8.172 z m 39.561,-33.209 0,13.009 c -1.969,-3.465 -6.236,-5.295 -10.635,-5.295 -9.848,0 -16.544,6.994 -16.807,16.277 -0.197,7.583 3.414,14.056 10.569,16.997 l -0.065,-0.065 c 2.035,0.85 4.268,1.242 6.303,1.242 3.938,0 8.533,-1.7 10.766,-5.753 l 0,3.072 c 0,1.438 0.723,2.288 2.232,2.288 1.51,0 2.43,-0.85 2.43,-2.288 l 0,-39.484 c 0,-3.007 -4.793,-3.007 -4.793,0 z m 0,27.456 c 0,6.406 -5.055,10.198 -11.029,10.198 -2.494,-0.196 -4.857,-0.98 -6.762,-2.484 -3.545,-2.941 -4.924,-6.864 -4.858,-11.113 0.065,-1.7 0.459,-3.465 0.984,-4.837 1.904,-4.512 6.565,-6.995 11.226,-6.995 5.975,0.261 10.438,4.314 10.438,10.067 l 0,5.164 z m 38.871,-18.5 -12.539,25.299 -12.67,-25.234 c -1.313,-2.941 -5.646,-0.719 -4.465,1.896 l 14.378,28.176 -5.777,11.701 c -1.247,3.072 2.889,4.707 4.464,1.634 l 21.074,-41.707 c 1.05,-2.745 -3.283,-4.315 -4.465,-1.765 z m 24.265,-1.242 c -4.398,0 -8.666,1.83 -10.635,5.295 l 0,-13.009 c 0,-3.007 -4.793,-3.007 -4.793,0 l 0,39.484 c 0,1.438 0.919,2.288 2.429,2.288 1.511,0 2.232,-0.85 2.232,-2.288 l 0,-3.072 c 2.232,4.053 6.828,5.753 10.767,5.753 2.035,0 4.268,-0.393 6.303,-1.242 l -0.066,0.065 c 7.156,-2.941 10.767,-9.414 10.57,-16.997 -0.263,-9.283 -6.959,-16.277 -16.807,-16.277 z m 7.156,27.456 c -1.904,1.504 -4.268,2.288 -6.763,2.484 -5.974,0 -11.028,-3.792 -11.028,-10.198 l 0,-5.164 c 0,-5.753 4.464,-9.807 10.438,-10.067 4.661,0 9.322,2.483 11.227,6.995 0.525,1.372 0.919,3.137 0.984,4.837 0.065,4.249 -1.313,8.172 -4.858,11.113 z m 44.288,-27.194 c -1.511,0 -2.364,0.98 -2.364,2.354 l 0,2.483 c -2.363,-3.856 -6.63,-5.034 -10.372,-5.099 -2.495,-0.065 -4.858,0.262 -7.024,1.242 l 0.065,-0.065 c -6.303,2.419 -9.979,8.498 -10.11,15.101 -0.197,6.406 2.363,11.963 7.354,15.362 2.757,1.962 6.302,2.812 9.453,2.812 3.873,0 8.731,-2.157 10.635,-5.949 l 0,3.138 c 0,1.438 0.854,2.354 2.364,2.354 1.443,0 2.429,-0.915 2.429,-2.354 l 0,-29.024 c -10e-4,-1.375 -0.986,-2.355 -2.43,-2.355 z m -2.364,19.48 c -0.328,6.537 -5.055,10.198 -11.095,10.198 -2.429,-0.196 -4.792,-0.98 -6.762,-2.484 -3.545,-2.941 -4.924,-6.864 -4.792,-11.113 0.065,-1.7 0.394,-3.465 0.984,-4.837 1.838,-4.576 6.565,-7.061 11.227,-6.995 5.908,0.261 10.438,3.595 10.438,10.067 l 0,5.164 z m 41.544,-19.547 c -1.51,0 -2.363,0.916 -2.363,2.354 l 0,2.484 c -2.166,-3.596 -6.762,-5.099 -10.767,-5.099 -1.969,0 -4.136,0.327 -6.171,1.111 -7.156,2.941 -10.701,9.413 -10.504,16.997 0.131,6.603 3.873,12.551 9.979,15.035 2.232,0.915 4.596,1.308 7.091,1.242 3.938,-0.065 8.206,-1.635 10.504,-5.753 l 0,3.53 c 0,6.733 -5.581,9.74 -11.555,9.74 -3.677,0 -6.04,-0.784 -9.322,-3.269 -2.232,-2.157 -5.843,0.85 -3.217,3.399 3.545,3.334 7.55,4.511 12.539,4.511 8.994,0 16.216,-4.903 16.216,-14.382 l 0,-29.549 c 0,-1.435 -0.985,-2.351 -2.43,-2.351 z m -2.363,19.547 c 0,5.553 -4.589,9.799 -10.491,10.066 -4.645,0.046 -9.342,-2.436 -11.173,-6.994 -0.591,-1.373 -0.919,-3.138 -0.984,-4.838 -0.132,-4.248 1.247,-8.171 4.857,-11.113 l -0.065,0 c 3.61,-2.745 8.338,-3.006 12.276,-1.241 3.873,1.7 5.58,4.837 5.58,8.956 l 0,5.164 z"
           id="path8"
           inkscape:connector-curvature="0"
           style="fill:#dc0000" /></g></g></g></svg>