<?xml version="1.0" encoding="UTF-8" standalone="no"?>
<!-- Generator: Adobe Illustrator 16.0.0, SVG Export Plug-In . SVG Version: 6.00 Build 0)  -->

<svg
   xmlns:dc="http://purl.org/dc/elements/1.1/"
   xmlns:cc="http://creativecommons.org/ns#"
   xmlns:rdf="http://www.w3.org/1999/02/22-rdf-syntax-ns#"
   xmlns:svg="http://www.w3.org/2000/svg"
   xmlns="http://www.w3.org/2000/svg"
   xmlns:sodipodi="http://sodipodi.sourceforge.net/DTD/sodipodi-0.dtd"
   xmlns:inkscape="http://www.inkscape.org/namespaces/inkscape"
   version="1.1"
   x="0px"
   y="0px"
   width="32"
   height="32"
   viewBox="0 0 32 32"
   enable-background="new 0 0 360 360"
   xml:space="preserve"
   id="svg2"
   inkscape:version="0.91 r13725"
   sodipodi:docname="Gb_full_vector.svg"><metadata
     id="metadata41"><rdf:RDF><cc:Work
         rdf:about=""><dc:format>image/svg+xml</dc:format><dc:type
           rdf:resource="http://purl.org/dc/dcmitype/StillImage" /><dc:title></dc:title></cc:Work></rdf:RDF></metadata><defs
     id="defs39" /><sodipodi:namedview
     pagecolor="#ffffff"
     bordercolor="#666666"
     borderopacity="1"
     objecttolerance="10"
     gridtolerance="10"
     guidetolerance="10"
     inkscape:pageopacity="0"
     inkscape:pageshadow="2"
     inkscape:window-width="1440"
     inkscape:window-height="851"
     id="namedview37"
     showgrid="false"
     fit-margin-top="0"
     fit-margin-left="0"
     fit-margin-right="0"
     fit-margin-bottom="0"
     inkscape:zoom="1.3111111"
     inkscape:cx="193.84426"
     inkscape:cy="-108.53673"
     inkscape:window-x="0"
     inkscape:window-y="0"
     inkscape:window-maximized="1"
     inkscape:current-layer="svg2" /><g
     id="Gb__x5B_red__x2F__x2F__horiztonal_x5D__1_"
     transform="matrix(0.1598785,0,0,0.1598785,-12.610737,-6.0565167)"><g
       id="_x34_C"><g
         id="g13"><circle
           cx="178.953"
           cy="137.95799"
           r="100.076"
           id="circle15"
           style="fill:#dc0000" /></g></g><g
       id="_x34_C_copy_3"><g
         id="g18"><circle
           cx="178.953"
           cy="137.95799"
           r="96.022003"
           id="circle20"
           style="fill:#ffffff" /></g></g><g
       id="_x34_C_copy_4"><g
         id="g23"><circle
           cx="178.953"
           cy="137.95799"
           r="90.899002"
           id="circle25"
           style="fill:#dc0000" /></g></g><g
       id="b"><g
         id="g28"><path
           d="m 216.146,114.673 c -7.582,0 -14.938,3.171 -18.332,9.173 l 0,-22.536 c 0,-5.209 -8.261,-5.209 -8.261,0 l 0,68.401 c 0,2.492 1.585,3.963 4.188,3.963 2.602,0 3.847,-1.471 3.847,-3.963 l 0,-5.322 c 3.848,7.021 11.77,9.966 18.559,9.966 3.508,0 7.354,-0.681 10.863,-2.152 l -0.113,0.113 c 12.334,-5.097 18.559,-16.308 18.219,-29.445 -0.455,-16.08 -11.997,-28.198 -28.97,-28.198 z m 12.333,47.564 c -3.281,2.605 -7.355,3.964 -11.655,4.304 -10.298,0 -19.011,-6.568 -19.011,-17.667 l 0,-8.946 c 0,-9.966 7.695,-16.987 17.992,-17.44 8.034,0 16.069,4.303 19.351,12.117 0.904,2.378 1.584,5.437 1.697,8.381 0.114,7.36 -2.263,14.155 -8.374,19.251 z"
           id="path30"
           inkscape:connector-curvature="0"
           style="fill:#ffffff" /></g></g><g
       id="G"><g
         id="g33"><path
           d="m 174.839,133.586 -23.99,0 c -4.752,0 -5.318,7.474 0,7.474 l 20.369,0 0,15.062 c -4.979,6.681 -13.692,10.305 -22.066,10.191 -14.598,-0.339 -27.498,-13.702 -27.724,-29.67 0,-14.835 10.864,-25.82 23.311,-28.766 8.486,-2.151 19.01,0.454 25.347,7.815 3.509,4.077 9.279,-1.359 5.885,-5.323 -6.224,-7.248 -16.747,-10.646 -26.592,-10.646 -2.037,0 -4.187,0.113 -5.884,0.34 -17.313,3.284 -30.213,19.026 -30.213,36.239 -0.453,21.404 16.294,37.598 35.758,37.71 10.976,0.115 22.179,-4.755 28.855,-13.588 1.018,-1.019 1.245,-2.492 1.245,-3.737 l 0,-18.912 c 0,-2.49 -1.019,-4.189 -4.301,-4.189 z"
           id="path35"
           inkscape:connector-curvature="0"
           style="fill:#ffffff" /></g></g></g><g
     inkscape:groupmode="layer"
     id="layer1"
     inkscape:label="Layer 1"
     transform="translate(-4.8862839e-7,3.2777672e-6)" /></svg>